<?xml version="1.0" encoding="utf-8"?>
<!-- Generator: Adobe Illustrator 25.2.0, SVG Export Plug-In . SVG Version: 6.00 Build 0)  -->
<svg version="1.1" id="Praying_Hands_1_" xmlns="http://www.w3.org/2000/svg" xmlns:xlink="http://www.w3.org/1999/xlink" x="0px"
	 y="0px" viewBox="0 0 612 792" style="enable-background:new 0 0 612 792;" xml:space="preserve">
<path id="Praying_Hands" fill="#6b4fb8" d="M151.56044,167.54178c-0.23911-3.16701,1.4734-6.28093,4.41451-7.47971
	c6.76418-2.75705,12.00964,7.27119,15.21359,16.14261c0.28589,0.68933-0.17049,1.53279-0.9019,1.67355
	c-5.61705,0.98653-8.92921,4.41878-12.86562,7.08278c-0.00002,0.00002-0.00006,0-0.00008-0.00002
	C154.38771,181.19788,152.07414,174.34573,151.56044,167.54178z M158.44833,227.07445
	c0.28647,0.58707,1.00908,0.82007,1.58884,0.5191c1.41426-0.73416,3.92274-2.00673,5.38206-2.57285
	c2.7993-1.08592,7.04683-0.02054,6.93793-3.05162C163.1516,195.32034,148.28491,206.24648,158.44833,227.07445z
	 M182.76288,140.97449c0.23378,0.47522,0.54063,0.91954,0.90134,1.30733c9.52498,10.24055,12.51889,12.69446,25.07225,4.0493
	c0.147-0.10124,0.18253-0.30833,0.0676-0.44489c-1.58682-1.88524-11.79597-13.68909-18.74951-13.81276
	c-3.64233,0.08403-8.4062,3.97499-7.65724,7.96986c0.04385,0.23386,0.13321,0.45883,0.23824,0.67235L182.76288,140.97449z
	 M157.85416,147.06737c5.7296-1.69449,11.60194-5.23239,15.18098-9.26567c0.43829-0.49393,0.63432-1.14381,0.25856-1.68683
	c0,0-0.55042-0.79793-0.56683-0.82689c-4.7773-8.4222-13.34167-19.63449-21.78302-11.97226
	c-1.83644,1.66695-2.75815,4.14635-2.43649,6.60559c0.90337,6.90646,4.09831,13.20201,7.97531,16.94099
	C156.84866,147.21527,157.36656,147.21156,157.85416,147.06737z M127.7132,242.68704
	c0.00001,0.00003,0.00005,0.00006,0.00008,0.00005c2.55114-0.79639,3.71497-7.67265,5.28759-9.343
	c2.8913-5.53687,7.08197-8.77026,11.49792-8.87231c0.50061-0.01172,0.92499-0.44385,1.01184-1.03223
	c0.7439-5.00632,3.99821-10.73061,3.84163-14.4702c-0.20689-4.94072-4.60718-10.8961-6.49684-18.68277
	c-2.54572-5.42307-6.92554,18.45699-6.92554,18.45699C133.86275,219.39084,125.33033,232.26164,127.7132,242.68704z
	 M148.97368,159.61823c0.00003,0,0.00005,0,0.00008,0.00002c8.55823-6.45679,19.04607-2.23178,24.1252,7.40329
	c3.33824,6.40317,4.71419,13.26529,8.92165,19.36479c3.83704,5.55882,8.7489,9.33813,13.91014,13.36232c0,0,0,0.00002,0,0.00002
	c1.11917,1.09033,14.86525,19.62352,21.43359,29.17526c6.37402,10.35512,15.90628,19.10645,26.33946,25.59801
	c0,0,0.00002,0.00002,0.00002,0.00002c7.35292,7.42276,11.01112,18.14587,15.22011,27.77017
	c4.93787,11.28903,13.36115,30.37686,17.28928,42.59241c0.09741,0.30286-0.2662,0.55066-0.51736,0.35541
	c-14.56534-11.3233-17.32178-30.6575-24.94327-46.5564c-3.10719-6.57098-5.03868-16.56174-11.1282-20.22299
	c-0.00002-0.00003-0.00005-0.00003-0.00005-0.00003c-5.99571,1.35324-10.83937,4.11542-14.18758,9.77081
	c-0.93002,1.84497-5.65303,0.36813-4.22385-1.5831c18.49902-23.09433,14.30557-0.24808-7.94882-33.16342
	c-7.1257-9.64021-12.11401-21.51231-21.15283-29.49467c0,0-0.00003-0.00002-0.00003-0.00002
	c-4.92744-0.68881-8.37003,6.02371-11.47308,4.56523c-0.00002-0.00002-0.00003-0.00006-0.00003-0.00006
	c0.3316-3.35699,5.34608-5.63956,7.26202-6.25545c0.99239-0.2558,1.21393-1.6918,0.35773-2.24455
	c-5.48531-3.81789-9.67937-9.15219-12.11128-16.44923c-2.18486-6.55576-14.51682,0.56448-16.36452,4.94794
	c-0.40071,0.84764-1.92287,0.95569-2.90497,0.71704c-0.00002,0-0.00002-0.00002-0.00002-0.00002
	c-1.51956-0.4599-6.30331-15.71559-6.73636-16.63127c-2.783-5.88467-5.21402,6.38043-5.3163,8.98936
	c-0.23782,6.06729,3.32216,17.59512,6.65224,24.28456c0.36375,0.76559,1.45192,0.92906,2.0303,0.31981
	c11.07581-9.52425,21.64664,4.65509,24.13631,15.17105c0,0,0,0.00002,0,0.00002c2.09123,4.95152,9.62245,14.58533,9.62247,14.58533
	c4.76045,7.94826,11.05602,24.20758,16.0206,31.95691c5.9213,9.39236,13.12883,17.4632,20.3241,25.9176c0,0,0,0,0,0
	c6.73505,11.38635,11.55627,22.33472,14.78957,35.32562c0.16396,0.65869-0.63596,1.151-1.14273,0.6994
	c-9.01439-8.03317-9.7607-22.40195-17.81885-30.68002c-0.00002,0-0.00006,0-0.00006,0
	c-6.99442,0.72107-13.6546,3.07513-18.23593,9.10895c-0.69629,1.01022-4.77267,0.8624-3.70958-0.99594
	c7.29924-10.94214,21.50516-9.91165,18.58197-13.06128c-11.90968-11.49097-22.04736-27.42993-29.3208-46.10524
	c-0.00002,0-0.00002-0.00002-0.00002-0.00002c-3.11429-2.73909-7.79059,2.23343-10.21765,4.08641
	c-1.1237,0.7533-4.14247,0.21368-2.66458-1.47369c3.91846-4.19505,7.53511-4.76619,11.01741-6.28909
	c0.00002,0,0.00005-0.00005,0.00005-0.00005c0.3075-2.81354-7.30804-12.02013-9.60899-16.22656
	c-0.40344-0.73753-1.10504-1.28261-1.93575-1.41165c-12.10612-1.88058-17.15102,17.8495-20.77992-6.94768
	c-0.04005-0.60829-0.52541-1.11122-1.13283-1.17274c-0.59668-0.06543-1.1748,0.32715-1.3418,0.90869
	c-3.79271,15.42738,0.02921,32.83026,9.51373,48.12646c0.93044,1.2095,1.0408,2.66122,1.70036,3.92038c0,0,0,0,0,0
	c2.52939,17.323,9.13327,35.24631,20.01912,49.31461c0,0,0,0,0,0c12.21515,18.48965,11.03223,27.96729,15.57098,52.96661
	c2.53564,16.71054,5.69482,37.50644,7.94189,47.27597c12.11137,42.90421,46.36247,85.01959,87.22041,102.87445
	c8.28839,3.30328,16.60968,5.29938,24.73566,5.93121c8.49747,0.67432,16.36545-0.74042,24.65332-1.8916
	c2.55634-0.29596,6.65018,2.62958,2.90146,4.08014c-7.18076,2.92865-15.62509,4.13568-25.06064,3.59564
	c-1.10559-0.16766-1.81375,1.31989-1.05856,2.09564c7.19916,8.13757,12.54523,17.61829,18.72849,26.48346
	c3.30612,4.50037,5.98969,9.75891,9.36719,14.18896c1.43033,1.8761,4.19977,2.02106,5.81165,0.29852
	c11.44626-12.23224,54.1326-59.04114,81.13821-104.88437c0.33627-0.5162,0.24838-1.22421-0.22134-1.63828
	c-3.98926-3.52441-7.89844-6.10742-11.34668-8.38574c0,0,0,0,0,0c-26.17609-13.3309-16.64395-49.58801-17.14792-73.79108
	c2.09512-37.45303-23.68869-64.34531-42.19934-94.29285c-5.51352-9.27396-12.7926-16.57538-18.54944-28.01212
	c-0.36703-0.79907-1.33218-0.94742-2.08276-1.21066c-2.62619-0.92102-5.84302-0.55399-8.67609-1.67044
	c-1.25299-0.98361,1.17795-1.87045,1.63986-1.75162c11.83664,1.09705,4.70578-2.61975,3.26538-12.64883c0,0,0-0.00002,0-0.00002
	c-1.8288-7.28746-3.15692-15.15123-4.30536-25.49742c-1.27664-6.69537,1.56396-20.92168-7.68646-21.77991c0,0,0,0,0,0
	c-12.23502,1.14569-18.95602,14.40862-19.93225,33.06645c0,0,0,0.00002,0,0.00002
	c2.56311,16.42668,21.07251,42.35144,26.04788,49.08377c0.22672,0.30679-0.16351,0.68445-0.47226,0.46039
	c-22.25595-16.15201-26.64447-47.80583-42.4176-68.03947c0,0,0-0.00002,0-0.00002
	c-3.56033-2.46327-10.17578,5.59019-12.85641,4.8157c-3.69012-0.8262,7.16473-7.04622,8.33038-7.44385
	c2.33914-2.08597-2.82553-4.41434-3.85345-5.84143c0,0,0-0.00002,0-0.00002c-13.97263-11.62808-26.55569-19.38063-40.12766-33.07791
	c-16.67601-17.79245-6.71346-14.048-20.84917-8.25317c-0.00002,0-0.00006-0.00002-0.00006-0.00002
	c-3.26855-2.18285,9.34261-5.91209,6.65198-8.0273c-4.78337-4.48639-14.54736-11.68912-15.80374-12.61183
	c-0.07991-0.05869-0.18648-0.05296-0.26157,0.01176c-1.46669,1.2643-3.37817,2.46555-5.40982,3.71167
	c-1.64316,1.00786-6.67021,2.42554-5.67967,4.09314c19.12135,26.75323,42.37759,48.41763,67.19101,70.67477c0,0,0,0.00002,0,0.00002
	c20.94482,25.03398,32.83954,56.87119,50.17844,83.54639c0.32025,0.49271-0.28058,1.0636-0.75418,0.7157
	c-26.70795-19.61996-31.76172-57.95248-54.14166-81.00508c-0.00003-0.00002-0.00006-0.00002-0.00006-0.00002
	c-11.4109,1.00505-15.00481,12.81024-18.52133,10.31171c-0.00002,0-0.00003-0.00003-0.00003-0.00003
	c-1.36797-4.34615,10.34908-12.22508,14.42868-13.11639c1.59033-0.64558,0.51212-2.18956-0.43045-2.52789
	c-13.3038-8.37949-23.53975-20.57993-34.82448-31.95497c-9.36172-10.11491-18.11661-20.94304-26.76407-33.10368
	c-0.33984-0.47559-0.9834-0.66162-1.53027-0.42725c-5.25586,2.27344-9.45215,4.74609-12.84766,9.42627
	c-0.49608,0.68311-1.93941,0.65724-2.69626,0.13968c-0.00002-0.00002-0.00002-0.00006-0.00002-0.00006
	c0.96915-5.39424,8.58833-9.86732,13.26678-11.41736c0.58281-0.16953,0.95879-0.733,0.89238-1.33603
	c-0.06543-0.60254-11.90723-9.85938-15.69531-15.11475c-0.47075-0.69531-1.61525-0.68358-2.0576,0.0435
	c-2.67247,3.6711-17.61911,11.0314-19.98866,10.13519c-3.37508-1.27652-8.0426-10.58446-8.91174-14.88524
	c-0.21318-1.27762-2.23862-1.35397-2.47356-0.00328C142.09215,144.57321,145.26666,154.86638,148.97368,159.61823z
	 M499.76376,487.33411c-8.83981-21.93091-27.56775-30.12332-45.31696-36.30771
	c-1.75714-0.70499-53.35242,99.02731-117.11566,147.14853c-1.62222,1.57697-7.07355-0.12811-4.35483-2.70007
	c3.47592-2.97473,6.95053-6.08997,10.62241-9.52258c0.50098-0.46777,0.53125-1.25195,0.06836-1.75684
	c-1.15924-0.89844-3.1355-3.63733-4.133-5.07318c-0.35803-0.51532-1.04434-0.68506-1.59622-0.38647
	c-6.78244,3.66998-12.7981,9.47461-16.26044,15.8927c-6.73996,11.68506,3.61877,24.72192,11.42914,33.84491c0,0,0,0,0,0
	c12.52112,13.01538,36.66339,39.5,56.98517,42.76691c0,0,0,0,0,0C422.68698,669.25024,517.35907,516.90802,499.76376,487.33411z
	 M197.95711,508.14172c10.08887,8.6123,22.40918,13.96094,37.66309,16.35352c3.80861,0.44989,2.58205,5.29004-1.01471,4.95697
	c-32.72591-4.73535-17.52829-12.90741-15.27435,28.74957c0.04636,0.85651,0.53648,1.62585,1.29108,2.03375
	c21.99829,11.8902,85.51625,10.56506,103.39427-3.84552c0.94635-0.76282,1.18674-2.09601,0.53723-3.12347
	c-2.73438-4.32556-9.34348-13.22534-12.07574-16.87445c-0.77792-1.03894-1.88965-1.76544-3.1525-2.06531
	c-4.34653-1.03198-14.90555-3.66901-20.24997-6.13104c-81.29524-37.34195-92.37956-116.10474-100.58005-178.24802
	c-0.01634-0.08633-0.03236-0.17105-0.04871-0.25739c-1.63254-6.59091-3.4493-13.49841-6.38736-20.28354
	c-0.12476-0.28812-0.30472-0.54306-0.52885-0.76288c-6.86662-6.73428-15.06033-21.80167-17.42702-30.06946
	c-0.71829-2.50928-1.40863-9.66724-4.1161-9.14435c-1.04202,0.25409-1.71878,1.21454-1.60843,2.28387
	c1.01112,9.84158-0.43427,30.08652,0.25337,35.37579c0.05096,0.39209,0.19803,0.75195,0.43225,1.0705
	c10.05893,13.67975,21.0842,48.02393,16.55327,51.5412c-0.89241,0.69275-2.0576-4.74741-7.06506-25.53387
	c-0.9122-3.78668-8.79678-21.95975-11.68794-18.23294c-2.46919,4.0462-4.62863,12.47025-10.69646,9.90442
	c-0.3031-0.20566-0.49255-0.40048-0.16248-1.03671c5.44745-10.49551,8.14777-19.40021,8.7485-28.86075
	c0.0016-0.04706,0.00301-0.08859,0.00461-0.13565c0.01509-4.74927,0.76057-29.5928-3.52365-26.95697
	c-0.02029,0.01859-0.04092,0.03745-0.06187,0.05655c-2.22514,2.02795-5.34312-1.07932-3.3663-3.34998
	c3.96414-4.55338,6.83966-9.92368,7.88193-15.56741c0.11249-0.60913-0.0433-1.23248-0.39145-1.74481
	c-5.51898-8.12167-9.08221-18.44254-10.07021-29.20305c-0.02852-0.14122-0.05588-0.27667-0.0844-0.41788
	c-0.86235-3.01208,1.36739-10.36316-1.76221-10.27861c-7.08737,2.13907-9.97198,11.75229-13.04681,18.20024
	c-5.5395,11.0638-11.33786,23.30858-17.08933,34.34196c-0.05589,0.0896-0.11184,0.17929-0.16772,0.26889
	c-4.38963,6.03726-3.40207,12.75369-0.62447,19.19131c0.03466,0.09726,0.06906,0.19376,0.10373,0.29102
	c2.85861,10.16049,4.40717,21.75644,4.24751,32.03998c-0.00279,0.05936-0.00553,0.11761-0.00832,0.177
	c-0.55296,7.06647-1.44107,14.68753,4.19934,20.03723c0.05347,0.05682,0.10761,0.11438,0.16107,0.1712
	c8.33118,10.03967,16.61667,21.08813,21.517,33.51904c7.59741,19.78848,22.55423,61.92133,31.28535,84.1925
	C178.47957,482.49329,185.295,497.33215,197.95711,508.14172z M316.98349,608.41614
	c-3.3125-14.74805,9.10886-25.54633,21.56439-33.74915c2.5322-0.41193-4.0235-9.8924-6.74255-13.66211
	c-0.65457-0.90753-1.8251-1.2644-2.87946-0.88977c-20.19016,7.17419-43.32486,11.49298-65.60703,10.44312
	c-20.3627,0.08545-48.93303-2.35693-62.02287-24.85596c-0.21484-0.36914-0.87012-1.49512,0.69727-2.42676
	c4.94972-4.15375,9.27228,12.36023,11.52003,6.08044c-1.13934-8.94275-2.36044-17.61292-5.07545-26.34894
	c-0.80994-2.60614-2.55421-4.84143-4.88556-6.26007c-4.47363-2.72217-8.55292-5.80188-12.39789-9.48901
	c-0.50371-0.51096-1.44511-0.44495-1.86424,0.1514c-11.09686,14.55759-17.75122,52.02493-11.08667,69.98819c0,0,0,0,0,0
	c13.0863,23.68982,31.448,39.5813,56.38635,53.34863c13.96609,7.94751,28.87665,17.73419,45.75107,17.8009
	c17.56631-0.39587,34.28549-9.96277,47.34814-21.21515c0,0,0,0,0-0.00006
	C323.87253,620.97021,318.18631,615.39514,316.98349,608.41614z"/>
</svg>
